<svg width="67" height="67" viewBox="0 0 67 67" fill="none" xmlns="http://www.w3.org/2000/svg">
<circle cx="33.5" cy="33.5" r="33.5" fill="#33A64B"/>
<path d="M32.6 40.025C32.7667 40.725 32.7833 41.3583 32.65 41.925C32.5167 42.4917 32.2667 42.975 31.9 43.375C31.5333 43.7917 31.0583 44.1083 30.475 44.325C29.8917 44.5583 29.2333 44.675 28.5 44.675C27.7333 44.675 26.95 44.4583 26.15 44.025C25.35 43.5917 24.6 43.1 23.9 42.55C23.2 42 22.5833 41.475 22.05 40.975C21.5333 40.475 21.1583 40.1583 20.925 40.025C20.625 40.4083 20.2667 40.725 19.85 40.975C19.4333 41.2417 18.9917 41.425 18.525 41.525C18.0583 41.6417 17.5833 41.675 17.1 41.625C16.6333 41.5917 16.1917 41.4667 15.775 41.25C15.375 41.05 15.025 40.7583 14.725 40.375C14.425 40.0083 14.2167 39.5333 14.1 38.95C14.0667 38.65 14.0833 38.35 14.15 38.05C14.2333 37.7333 14.3583 37.4417 14.525 37.175C14.7083 36.8917 14.9417 36.6333 15.225 36.4C15.525 36.1667 15.8833 35.9833 16.3 35.85C16.8833 35.6667 17.45 35.625 18 35.725C18.5667 35.825 19.1333 36.0167 19.7 36.3C19.7333 36.2667 19.775 36.2167 19.825 36.15C19.875 36.0833 19.95 35.9667 20.05 35.8C20.15 35.6167 20.2833 35.375 20.45 35.075C20.6167 34.7583 20.8333 34.3333 21.1 33.8C21.3833 33.25 21.725 32.575 22.125 31.775C22.525 30.9583 23.0083 29.975 23.575 28.825C22.7917 28.9583 22.0917 29.1417 21.475 29.375C20.875 29.6083 20.425 29.9417 20.125 30.375C19.7083 30.9917 19.5333 31.6 19.6 32.2C19.6667 32.7833 19.8833 33.3167 20.25 33.8C19.5167 34.3833 18.7917 34.6417 18.075 34.575C17.375 34.5083 16.7667 34.25 16.25 33.8C15.75 33.35 15.3917 32.7917 15.175 32.125C14.975 31.4417 15.0167 30.775 15.3 30.125C15.65 29.3583 16.15 28.7583 16.8 28.325C17.4667 27.8917 18.2167 27.575 19.05 27.375C19.8833 27.175 20.7667 27.0583 21.7 27.025C22.65 26.975 23.5833 26.9417 24.5 26.925C24.7167 26.5583 24.9833 26.0917 25.3 25.525C25.6167 24.9583 25.975 24.4333 26.375 23.95C26.7917 23.4667 27.2583 23.075 27.775 22.775C28.2917 22.475 28.8667 22.4 29.5 22.55C29.9167 22.6167 30.2917 22.7917 30.625 23.075C30.9583 23.3417 31.2083 23.675 31.375 24.075C31.5417 24.4583 31.6167 24.8667 31.6 25.3C31.5833 25.7333 31.4417 26.1333 31.175 26.5C30.7583 27.0667 30.1583 27.4833 29.375 27.75C28.6083 28 27.775 28.2 26.875 28.35C26.6583 29 26.4167 29.7083 26.15 30.475C25.9 31.225 25.6 32.0167 25.25 32.85C24.9 33.6667 24.5 34.5167 24.05 35.4C23.6167 36.2667 23.1 37.1333 22.5 38C22.7667 38.0833 23.1083 38.2417 23.525 38.475C23.9583 38.7083 24.4333 38.9583 24.95 39.225C25.4833 39.4917 26.05 39.7417 26.65 39.975C27.2667 40.225 27.9 40.4083 28.55 40.525C29.2167 40.6417 29.8917 40.6667 30.575 40.6C31.2583 40.55 31.9333 40.3583 32.6 40.025ZM29.75 24.175C29.2333 24.0917 28.8083 24.2667 28.475 24.7C28.1417 25.1333 27.825 25.75 27.525 26.55C27.675 26.6833 27.8917 26.7333 28.175 26.7C28.475 26.6667 28.775 26.575 29.075 26.425C29.375 26.275 29.6417 26.1 29.875 25.9C30.1083 25.6833 30.25 25.4667 30.3 25.25C30.3667 25 30.35 24.7667 30.25 24.55C30.1667 24.3333 30 24.2083 29.75 24.175ZM18.325 37.65C17.925 37.4333 17.5833 37.3 17.3 37.25C17.0167 37.2 16.7917 37.2083 16.625 37.275C16.4583 37.3417 16.3417 37.4417 16.275 37.575C16.225 37.6917 16.2167 37.8167 16.25 37.95C16.2667 38.0667 16.3167 38.175 16.4 38.275C16.4833 38.3583 16.6 38.4083 16.75 38.425C16.9167 38.425 17.125 38.375 17.375 38.275C17.625 38.1583 17.9417 37.95 18.325 37.65ZM30.0533 39.825C29.2033 39.8583 28.5117 39.7333 27.9783 39.45C27.445 39.1833 27.045 38.8083 26.7783 38.325C26.5117 37.8417 26.3783 37.2833 26.3783 36.65C26.3617 36 26.445 35.3417 26.6283 34.675C26.795 33.9917 27.0533 33.3167 27.4033 32.65C27.77 31.9833 28.1867 31.3833 28.6533 30.85C29.1367 30.3 29.6617 29.85 30.2283 29.5C30.8117 29.1333 31.4117 28.9167 32.0283 28.85C32.745 28.7833 33.3617 28.8833 33.8783 29.15C34.4117 29.4167 34.82 29.8 35.1033 30.3C35.4033 30.8 35.5783 31.3833 35.6283 32.05C35.6783 32.7 35.5867 33.375 35.3533 34.075C35.2033 34.725 34.9783 35.375 34.6783 36.025C34.3783 36.6583 34.0033 37.2417 33.5533 37.775C33.12 38.2917 32.6117 38.7333 32.0283 39.1C31.445 39.4667 30.7867 39.7083 30.0533 39.825ZM30.5783 36.025C31.045 36.075 31.47 35.975 31.8533 35.725C32.2367 35.475 32.5617 35.15 32.8283 34.75C33.1117 34.3333 33.3367 33.875 33.5033 33.375C33.67 32.8583 33.77 32.375 33.8033 31.925C33.8367 31.4583 33.795 31.0583 33.6783 30.725C33.5783 30.3917 33.4033 30.1833 33.1533 30.1C32.8367 30 32.495 30.075 32.1283 30.325C31.7783 30.5583 31.4367 30.8833 31.1033 31.3C30.77 31.7167 30.4783 32.1833 30.2283 32.7C29.9783 33.2167 29.8033 33.7167 29.7033 34.2C29.62 34.6667 29.6367 35.075 29.7533 35.425C29.8867 35.7583 30.1617 35.9583 30.5783 36.025ZM40.4242 39.1C39.6409 39.6167 38.9409 39.9 38.3242 39.95C37.7076 40 37.1909 39.8917 36.7742 39.625C36.3409 39.375 36.0242 39 35.8242 38.5C35.6076 38 35.5159 37.4667 35.5492 36.9C35.5826 36.4667 35.6742 36.025 35.8242 35.575C35.9576 35.1083 36.1159 34.65 36.2992 34.2C36.4159 33.9 36.6326 33.45 36.9492 32.85C37.2659 32.2333 37.6159 31.5417 37.9992 30.775C38.3992 29.9917 38.8076 29.1583 39.2242 28.275C39.6409 27.3917 40.0076 26.525 40.3242 25.675C40.6409 24.825 40.8826 24.0167 41.0492 23.25C41.2159 22.4833 41.2576 21.825 41.1742 21.275C41.6409 21.175 42.0992 21.2083 42.5492 21.375C42.9992 21.5417 43.3659 21.8083 43.6492 22.175C43.9326 22.525 44.1076 22.9583 44.1742 23.475C44.2409 23.975 44.1409 24.5167 43.8742 25.1C43.6576 25.5667 43.3492 26.1667 42.9492 26.9C42.5492 27.6333 42.1326 28.4333 41.6992 29.3C41.2659 30.1667 40.8492 31.075 40.4492 32.025C40.0659 32.9583 39.7826 33.8667 39.5992 34.75C39.4159 35.6333 39.3659 36.4583 39.4492 37.225C39.5492 37.975 39.8742 38.6 40.4242 39.1ZM51.5971 39.325C50.9304 39.775 50.3221 40.0167 49.7721 40.05C49.2387 40.1 48.7804 40 48.3971 39.75C48.0304 39.5 47.7471 39.15 47.5471 38.7C47.3471 38.2333 47.2554 37.7333 47.2721 37.2C46.9387 37.8 46.5054 38.3333 45.9721 38.8C45.4554 39.2667 44.8304 39.5 44.0971 39.5C43.5804 39.5 43.1221 39.4 42.7221 39.2C42.3387 39 42.0221 38.725 41.7721 38.375C41.5221 38.025 41.3471 37.625 41.2471 37.175C41.1471 36.7083 41.1387 36.2083 41.2221 35.675C41.3554 34.7917 41.6221 33.975 42.0221 33.225C42.4054 32.4583 42.8721 31.7917 43.4221 31.225C43.9721 30.6417 44.5637 30.175 45.1971 29.825C45.8304 29.4583 46.4387 29.2417 47.0221 29.175C47.6221 29.0917 48.1637 29.1667 48.6471 29.4C49.1304 29.6333 49.4971 30.05 49.7471 30.65C49.8471 30.1667 49.8304 29.75 49.6971 29.4C50.0971 29.2 50.5054 29.1583 50.9221 29.275C51.3387 29.3917 51.6804 29.625 51.9471 29.975C52.2137 30.3083 52.3721 30.725 52.4221 31.225C52.4721 31.725 52.3471 32.2667 52.0471 32.85C51.9971 32.9333 51.9137 33.1167 51.7971 33.4C51.6804 33.6833 51.5554 34.025 51.4221 34.425C51.2887 34.8083 51.1721 35.2333 51.0721 35.7C50.9721 36.15 50.9054 36.6083 50.8721 37.075C50.8554 37.525 50.8971 37.95 50.9971 38.35C51.1137 38.7333 51.3137 39.0583 51.5971 39.325ZM47.7971 34.8C47.8637 34.75 47.9471 34.6583 48.0471 34.525C48.1637 34.275 48.2804 34.025 48.3971 33.775C48.5137 33.525 48.6387 33.275 48.7721 33.025C49.0387 32.2917 49.1304 31.7083 49.0471 31.275C48.9637 30.825 48.7804 30.5167 48.4971 30.35C48.1637 30.1833 47.8221 30.175 47.4721 30.325C47.1387 30.4583 46.8221 30.6917 46.5221 31.025C46.2221 31.3417 45.9637 31.725 45.7471 32.175C45.5304 32.6083 45.3887 33.0417 45.3221 33.475C45.2554 33.8917 45.2887 34.275 45.4221 34.625C45.5554 34.975 45.8137 35.2167 46.1971 35.35C46.4137 35.4333 46.6554 35.4333 46.9221 35.35C47.1887 35.2667 47.4804 35.0833 47.7971 34.8Z" fill="white"/>
</svg>
